<?xml version="1.0" standalone="no"?>
<!DOCTYPE svg PUBLIC "-//W3C//DTD SVG 20010904//EN"
 "http://www.w3.org/TR/2001/REC-SVG-20010904/DTD/svg10.dtd">
<svg version="1.0" xmlns="http://www.w3.org/2000/svg"
 width="200.000000pt" height="200.000000pt" viewBox="0 0 200.000000 200.000000"
 preserveAspectRatio="xMidYMid meet">

<g transform="translate(0.000000,200.000000) scale(0.100000,-0.100000)"
fill="#000000" stroke="none">
<path d="M0 1000 l0 -1000 1000 0 1000 0 0 1000 0 1000 -1000 0 -1000 0 0
-1000z m1539 181 c17 -9 21 -21 21 -56 0 -51 -13 -59 -28 -16 -32 90 -124 95
-168 9 -22 -42 -22 -125 -1 -165 19 -35 62 -63 99 -63 13 0 40 9 61 20 36 20
38 20 28 2 -17 -33 -78 -55 -133 -50 -80 8 -136 63 -145 141 -9 80 30 150 102
184 34 15 130 12 164 -6z m-700 -17 c69 -58 22 -154 -75 -154 l-44 0 0 -60 c0
-58 1 -60 33 -69 26 -7 13 -9 -63 -10 -83 -1 -92 1 -70 12 25 12 25 14 25 146
0 146 -6 161 -58 147 l-26 -6 -3 -156 -3 -156 -33 -29 c-18 -16 -44 -29 -59
-29 l-26 0 27 25 c26 24 26 24 26 178 0 161 -2 169 -45 180 -11 2 66 5 172 6
l191 1 31 -26z m185 -86 l53 -112 24 54 c14 30 36 81 49 112 l25 58 60 -1 c41
-1 52 -3 35 -8 l-25 -7 0 -144 0 -144 25 -7 c14 -4 -14 -7 -65 -7 -72 0 -84 2
-62 10 l27 10 0 111 c0 60 -2 108 -4 106 -2 -2 -27 -59 -56 -127 -29 -67 -54
-121 -56 -119 -2 1 -31 61 -64 132 l-60 130 2 -115 c3 -111 4 -115 28 -127 22
-11 18 -13 -45 -12 -45 1 -61 4 -45 8 24 7 25 10 30 117 7 146 2 176 -30 185
-17 5 -4 7 38 8 l63 1 53 -112z"/>
<path d="M720 1106 c0 -73 1 -76 23 -76 33 0 57 30 57 73 0 33 -20 67 -40 67
-5 0 -15 3 -24 6 -14 5 -16 -5 -16 -70z"/>
</g>
</svg>
