<?xml version="1.0" encoding="UTF-8"?>
<svg version="1.1" xmlns="http://www.w3.org/2000/svg" width="960" height="961">
<path d="M0 0 C1.420501 0.20654988 2.84107789 0.41257835 4.26171875 0.61816406 C50.69927027 7.41464006 95.51682382 20.23298404 138.24511719 39.74365234 C140.67047712 40.84972308 143.10288653 41.93757928 145.5390625 43.01953125 C181.7819805 59.33587726 215.64982645 82.49015585 246 108 C246.515625 108.43070801 247.03125 108.86141602 247.5625 109.30517578 C263.99646805 123.05990317 280.45818769 137.69641735 294.34375 154.06640625 C296.25985577 156.30336935 298.25512856 158.45803578 300.25 160.625 C305.28686708 166.21396887 309.88244388 172.09731213 314.47705078 178.04882812 C316.03522776 180.04513309 317.62145102 182.01609435 319.21484375 183.984375 C335.21506268 203.89586172 348.54198674 225.73954999 361 248 C361.4542334 248.80920898 361.9084668 249.61841797 362.37646484 250.45214844 C390.93708062 301.78567109 407.97891176 359.77742151 415.25 417.875 C415.33317474 418.539552 415.41634949 419.204104 415.50204468 419.88879395 C417.14506754 433.17586634 418.15361252 446.34617242 418.203125 459.7421875 C418.21018463 461.01636536 418.21724426 462.29054321 418.22451782 463.60333252 C418.24404696 467.69389419 418.24920984 471.78439608 418.25 475.875 C418.25044186 476.92063236 418.25044186 476.92063236 418.25089264 477.98738861 C418.2522919 498.47464093 418.06246425 518.69363328 415 539 C414.79862279 540.39898888 414.59797414 541.79808276 414.39794922 543.19726562 C405.39581554 605.45866212 385.20815708 665.79903624 353 720 C352.52852539 720.80083008 352.05705078 721.60166016 351.57128906 722.42675781 C338.51244218 744.54987173 323.52566476 765.33869629 307 785 C306.56929199 785.515625 306.13858398 786.03125 305.69482422 786.5625 C291.94009683 802.99646805 277.30358265 819.45818769 260.93359375 833.34375 C258.69663065 835.25985577 256.54196422 837.25512856 254.375 839.25 C248.78603113 844.28686708 242.90268787 848.88244388 236.95117188 853.47705078 C234.95486691 855.03522776 232.98390565 856.62145102 231.015625 858.21484375 C211.09589413 874.2216874 189.24489375 887.49815366 167 900 C165.89930176 900.62479248 165.89930176 900.62479248 164.77636719 901.26220703 C102.3044898 936.51697989 26.40735268 956.92570419 -45.3671875 957.203125 C-46.59273346 957.21018463 -47.81827942 957.21724426 -49.08096313 957.22451782 C-53.01232696 957.24202372 -56.9436053 957.24920994 -60.875 957.25 C-61.54608795 957.25029457 -62.2171759 957.25058914 -62.90859985 957.25089264 C-83.43495938 957.25234745 -103.65091953 956.94821323 -124 954 C-125.40165861 953.80444293 -126.80335277 953.60914059 -128.20507812 953.4140625 C-171.54175178 947.29050675 -213.86760437 935.51671832 -254 918 C-255.55307368 917.3391107 -257.10645551 916.67894504 -258.66015625 916.01953125 C-269.75447998 911.25820247 -280.41165744 905.79049984 -291 900 C-291.79148437 899.57299805 -292.58296875 899.14599609 -293.3984375 898.70605469 C-316.43530846 886.22774958 -338.61031853 871.45461824 -359 855 C-359.9796875 854.21882812 -360.959375 853.43765625 -361.96875 852.6328125 C-364.67131606 850.45056807 -367.34092661 848.23499703 -370 846 C-370.515625 845.56929199 -371.03125 845.13858398 -371.5625 844.69482422 C-387.99646805 830.94009683 -404.45818769 816.30358265 -418.34375 799.93359375 C-420.25985577 797.69663065 -422.25512856 795.54196422 -424.25 793.375 C-429.28686708 787.78603113 -433.88244388 781.90268787 -438.47705078 775.95117188 C-440.03522776 773.95486691 -441.62145102 771.98390565 -443.21484375 770.015625 C-459.21506268 750.10413828 -472.54198674 728.26045001 -485 706 C-485.4542334 705.19079102 -485.9084668 704.38158203 -486.37646484 703.54785156 C-514.93708062 652.21432891 -531.97891176 594.22257849 -539.25 536.125 C-539.33317474 535.460448 -539.41634949 534.795896 -539.50204468 534.11120605 C-541.14506754 520.82413366 -542.15361252 507.65382758 -542.203125 494.2578125 C-542.21018463 492.98363464 -542.21724426 491.70945679 -542.22451782 490.39666748 C-542.24404696 486.30610581 -542.24920984 482.21560392 -542.25 478.125 C-542.25029457 477.42791176 -542.25058914 476.73082352 -542.25089264 476.01261139 C-542.25229177 455.52714932 -542.07183547 435.3036826 -539 415 C-538.79345012 413.579499 -538.58742165 412.15892211 -538.38183594 410.73828125 C-531.58535994 364.30072973 -518.76701596 319.48317618 -499.25634766 276.75488281 C-498.15027692 274.32952288 -497.06242072 271.89711347 -495.98046875 269.4609375 C-479.66412274 233.2180195 -456.50984415 199.35017355 -431 169 C-430.56929199 168.484375 -430.13858398 167.96875 -429.69482422 167.4375 C-415.94009683 151.00353195 -401.30358265 134.54181231 -384.93359375 120.65625 C-382.69663065 118.74014423 -380.54196422 116.74487144 -378.375 114.75 C-372.78603113 109.71313292 -366.90268787 105.11755612 -360.95117188 100.52294922 C-358.95486691 98.96477224 -356.98390565 97.37854898 -355.015625 95.78515625 C-335.10413828 79.78493732 -313.26045001 66.45801326 -291 54 C-289.78618652 53.3186499 -289.78618652 53.3186499 -288.54785156 52.62353516 C-238.52160471 24.7902531 -182.50755361 8.46826118 -126.07275391 0.3013916 C-124.1737799 0.0252687 -122.27625791 -0.26079269 -120.37890625 -0.54785156 C-81.97001935 -6.13157125 -38.33767781 -5.80027973 0 0 Z M-263.01405191 308.79999006 C-264.25724304 311.57400309 -265.8140749 314.07274794 -267.48828125 316.60546875 C-268.43054638 318.13228278 -269.37197206 319.65961524 -270.3125 321.1875 C-273.90648988 327.01438261 -277.51598275 332.83079182 -281.15625 338.62890625 C-281.84807373 339.73145752 -282.53989746 340.83400879 -283.25268555 341.9699707 C-284.6090525 344.12983677 -285.96724224 346.28855939 -287.32739258 348.44604492 C-287.93736084 349.41775635 -288.5473291 350.38946777 -289.17578125 351.390625 C-289.72145752 352.25719727 -290.26713379 353.12376953 -290.8293457 354.01660156 C-292.08471559 355.75967952 -292.08471559 355.75967952 -292 357 C-257.87686182 357.59601355 -223.7550253 358.05369218 -189.62783229 358.32769857 C-185.59270001 358.36021426 -181.55757795 358.39386689 -177.52246094 358.42822266 C-176.71919192 358.43504273 -175.91592289 358.4418628 -175.08831239 358.44888954 C-162.10627023 358.56181955 -149.1272424 358.76668762 -136.14698458 359.0059727 C-122.81294952 359.24971651 -109.48048491 359.39364896 -96.14431381 359.44630086 C-88.65821029 359.47868473 -81.17842964 359.55675284 -73.69458008 359.74898148 C-43.18116484 362.56823776 -43.18116484 362.56823776 -16.35991859 352.99028504 C-11.45983301 347.51609994 -9.01291655 341.23117802 -7.027771 334.19909286 C-5.4413303 329.26105596 -2.6830787 325.2923649 0.25 321.0625 C1.20403557 319.57030073 2.15279894 318.07470321 3.09375 316.57421875 C4.62004795 314.17071994 6.1475786 311.76801092 7.67578125 309.36572266 C8.81825748 307.56915944 9.95987659 305.77205084 11.10058594 303.97436523 C12.17994238 302.27337234 13.26124681 300.57361358 14.34472656 298.87524414 C14.82393555 298.11977295 15.30314453 297.36430176 15.796875 296.5859375 C16.22323242 295.9161084 16.64958984 295.2462793 17.08886719 294.55615234 C18.08421129 293.15671745 18.08421129 293.15671745 18 292 C-16.19162985 291.564747 -50.38262548 291.23013749 -84.57642902 291.02975874 C-88.61671242 291.0059964 -92.65699036 290.98140417 -96.69726562 290.95629883 C-97.90374302 290.94882298 -97.90374302 290.94882298 -99.1345937 290.94119611 C-112.14445471 290.85860402 -125.1527144 290.70884945 -138.16162661 290.53409687 C-151.5183311 290.35617394 -164.87419934 290.25083412 -178.23204017 290.2123186 C-186.4702572 290.1862932 -194.70394867 290.10424612 -202.94077143 289.94958713 C-208.59562122 289.8488425 -214.2481459 289.81886107 -219.9038271 289.84347383 C-223.1654584 289.85560904 -226.41759304 289.82707734 -229.67817307 289.73509598 C-247.58467526 289.25484454 -255.62745741 291.88907999 -263.01405191 308.79999006 Z M74 293 C73.22761463 294.16282405 72.50631957 295.35957097 71.8046875 296.56640625 C71.34384766 297.35015625 70.88300781 298.13390625 70.40820312 298.94140625 C69.90224609 299.80636719 69.39628906 300.67132813 68.875 301.5625 C64.27393017 309.34116616 59.47808846 316.9574998 54.5 324.5 C49.83484743 331.57679924 45.30936282 338.70094373 41 346 C36.09450747 354.30876106 30.875866 362.37823158 25.56640625 370.43359375 C21.55893522 376.53904553 17.71276065 382.71144877 14 389 C9.69062234 396.2990814 5.16466358 403.42286387 0.5 410.5 C-4.78089509 418.51243874 -9.83866021 426.61642873 -14.72924805 434.87207031 C-18.23400096 440.77196324 -21.89128793 446.54889689 -25.64770508 452.29101562 C-29.65885802 458.43551823 -33.55642777 464.64765432 -37.4375 470.875 C-41.93811664 478.09632839 -46.44796841 485.31095604 -51 492.5 C-56.1704878 500.66872256 -61.29577622 508.86523037 -66.41381836 517.06689453 C-70.903759 524.25797328 -75.41891585 531.43258715 -79.96875 538.5859375 C-80.41347656 539.2871875 -80.85820312 539.9884375 -81.31640625 540.7109375 C-81.95844151 541.67743697 -81.95844151 541.67743697 -82.61344719 542.66346169 C-84.07515235 544.9679437 -84.07515235 544.9679437 -84.95358467 547.56644249 C-86.28427418 550.7196682 -87.47691165 552.66306995 -90 555 C-95.86107511 556.51725293 -101.64551584 556.26503562 -107.66357422 556.13525391 C-109.48709456 556.1324321 -111.31062627 556.1340186 -113.13414001 556.13967896 C-118.0788393 556.14254719 -123.02111063 556.08377981 -127.96524572 556.01393938 C-133.13410456 555.95140516 -138.30301975 555.94555057 -143.47219849 555.9336853 C-153.25796708 555.90260962 -163.04261787 555.82055739 -172.82789433 555.72019041 C-183.9691385 555.60839722 -195.1104362 555.55342943 -206.25210166 555.50323606 C-229.16868739 555.39872322 -252.08428106 555.22284347 -275 555 C-274.31845856 553.97981781 -273.63691711 552.95963562 -272.9347229 551.90853882 C-272.02888745 550.55150859 -271.12307614 549.19446225 -270.21728516 547.83740234 C-269.76946182 547.16720566 -269.32163849 546.49700897 -268.86024475 545.8065033 C-265.29162895 540.45837859 -261.80732711 535.06164058 -258.375 529.625 C-257.19042307 527.75630822 -256.00551264 525.88782782 -254.8203125 524.01953125 C-254.20704102 523.05225098 -253.59376953 522.0849707 -252.96191406 521.08837891 C-249.76053697 516.04887913 -246.54334018 511.01952337 -243.32452393 505.9911499 C-242.2672965 504.33952105 -241.21054854 502.68758532 -240.15380859 501.03564453 C-239.51008301 500.03001465 -238.86635742 499.02438477 -238.203125 497.98828125 C-237.63239258 497.09665283 -237.06166016 496.20502441 -236.47363281 495.28637695 C-235.33135218 493.51410093 -234.16958472 491.75437708 -233 490 C-231.06227589 489.68227863 -231.06227589 489.68227863 -228.6464386 489.76277161 C-227.73139557 489.7849173 -226.81635254 489.80706299 -225.87358093 489.82987976 C-224.36281731 489.88859001 -224.36281731 489.88859001 -222.8215332 489.94848633 C-220.62585402 490.00729394 -218.43015918 490.06551904 -216.23445129 490.12324524 C-215.06487192 490.15886377 -213.89529255 490.19448231 -212.69027138 490.23118019 C-206.49443175 490.40286825 -200.29716772 490.47036571 -194.09960938 490.55273438 C-186.21196254 490.66023059 -178.3298562 490.79895986 -170.44604492 491.07299805 C-143.37700615 493.67875044 -143.37700615 493.67875044 -118.23596191 486.76660156 C-112.75660508 481.35514996 -110.10679319 475.19130454 -107.927948 467.89572144 C-106.65274726 463.91637548 -104.75402991 461.08840239 -102.3515625 457.6796875 C-101.40893555 456.2093103 -101.40893555 456.2093103 -100.44726562 454.70922852 C-99.84591797 453.77393311 -99.24457031 452.8386377 -98.625 451.875 C-97.96435547 450.84366943 -97.30371094 449.81233887 -96.62304688 448.74975586 C-93.76156909 444.2851906 -90.89250615 439.82616355 -87.9921875 435.38671875 C-87.56212402 434.72623535 -87.13206055 434.06575195 -86.68896484 433.38525391 C-85.59872732 431.71385486 -84.50277044 430.04619013 -83.40625 428.37890625 C-81.83037594 426.17362999 -81.83037594 426.17362999 -82 424 C-113.95753745 423.42872562 -145.91361304 422.98678194 -177.87506911 422.72336676 C-181.65483962 422.69210199 -185.43460003 422.65974366 -189.21435547 422.62670898 C-189.96678404 422.62015122 -190.71921261 422.61359346 -191.49444205 422.60683698 C-203.65198289 422.49827488 -215.80654527 422.30130104 -227.96232349 422.0711801 C-240.45111147 421.8367407 -252.93834866 421.69840008 -265.42924643 421.64778763 C-272.44023887 421.61666044 -279.44498552 421.54167162 -286.45375061 421.35674858 C-314.95309435 418.74838648 -314.95309435 418.74838648 -340.41270971 427.80534619 C-345.17425828 432.99818843 -347.71054515 439.10838637 -349.82681274 445.76753426 C-351.79936302 451.20247328 -355.07248547 455.75068452 -358.3125 460.5 C-359.45250833 462.28139825 -360.5874548 464.06605743 -361.71484375 465.85546875 C-365.36925141 471.59315947 -369.07126055 477.29993781 -372.80200195 482.98828125 C-375.00281762 485.78714024 -375.00281762 485.78714024 -376 489 C-346.795 489.495 -346.795 489.495 -317 490 C-329.55115027 510.53824589 -329.55115027 510.53824589 -335.9375 520.4375 C-337.31946091 522.58825227 -338.7009675 524.73929653 -340.08203125 526.890625 C-340.74799316 527.92767578 -341.41395508 528.96472656 -342.10009766 530.03320312 C-344.79379109 534.2395463 -347.46261852 538.46129032 -350.125 542.6875 C-354.39859113 549.46992941 -358.69273825 556.23890074 -363 563 C-367.83208185 570.58564336 -372.64774073 578.18129365 -377.44335938 585.79003906 C-380.18954983 590.1439792 -382.9479214 594.48981534 -385.71875 598.828125 C-386.3478125 599.81361328 -386.976875 600.79910156 -387.625 601.81445312 C-388.84231792 603.7203165 -390.06098965 605.62531609 -391.28125 607.52929688 C-391.838125 608.40134766 -392.395 609.27339844 -392.96875 610.171875 C-393.70254883 611.3180127 -393.70254883 611.3180127 -394.45117188 612.48730469 C-395.70773619 614.52585448 -396.91236505 616.57658734 -398.09680176 618.65704346 C-398.72485718 619.76021912 -399.3529126 620.86339478 -400 622 C-355.72714778 622.4120998 -311.45449873 622.72922261 -267.18010629 622.91917593 C-261.95185484 622.94168835 -256.72360715 622.96498618 -251.49536133 622.98876953 C-249.93410262 622.99585191 -249.93410262 622.99585191 -248.34130333 623.00307737 C-231.49314564 623.08137873 -214.64609471 623.22328575 -197.79859336 623.38875033 C-180.50828959 623.55714608 -163.21856494 623.65707136 -145.9274748 623.69359291 C-135.25921024 623.71827962 -124.59407365 623.79620056 -113.92677227 623.9424964 C-106.6092544 624.03773281 -99.29335047 624.06638506 -91.97525802 624.04302479 C-87.7531211 624.03150356 -83.53644155 624.04899236 -79.31527901 624.14569855 C-63.18962084 625.21972619 -63.18962084 625.21972619 -48.60472894 620.2410388 C-44.82707387 616.05741889 -42.67542657 611.46471058 -40.83015788 606.18427444 C-39.59441059 602.9328312 -37.80333088 600.31168117 -35.84765625 597.44140625 C-35.2227832 596.46896973 -34.59791016 595.4965332 -33.95410156 594.49462891 C-33.32987305 593.52702637 -32.70564453 592.55942383 -32.0625 591.5625 C-30.68315193 589.41564839 -29.30424964 587.2685103 -27.92578125 585.12109375 C-27.2601416 584.08452637 -26.59450195 583.04795898 -25.90869141 581.97998047 C-23.17130866 577.70619001 -20.45695614 573.41810901 -17.75 569.125 C-17.02864868 567.9810376 -17.02864868 567.9810376 -16.29272461 566.81396484 C-15.33717086 565.29783467 -14.38184603 563.7815602 -13.42675781 562.26513672 C-6.05103565 550.55535743 1.35352319 538.86433659 8.78857422 527.19213867 C12.53860925 521.30283923 16.27547579 515.40546218 20 509.5 C24.90865946 501.71701856 29.84545306 493.95222544 34.7890625 486.19140625 C38.53890733 480.30233276 42.27551571 474.4051409 46 468.5 C50.34242884 461.61752282 54.69646104 454.74252664 59.0625 447.875 C59.64531738 446.95750977 60.22813477 446.04001953 60.82861328 445.09472656 C63.63830368 440.67938652 66.46430653 436.27634375 69.33203125 431.8984375 C69.84693115 431.11098145 70.36183105 430.32352539 70.89233398 429.51220703 C71.85779661 428.03913331 72.82716853 426.56861198 73.80102539 425.10107422 C76.18316707 421.82603339 76.18316707 421.82603339 77 418 C79.89007151 420.72785763 82.08373902 423.43802062 84.1875 426.8046875 C85.09725586 428.24678589 85.09725586 428.24678589 86.02539062 429.71801758 C86.67701172 430.75982178 87.32863281 431.80162598 88 432.875 C89.42461835 435.12791976 90.85093811 437.3796109 92.28125 439.62890625 C92.84386536 440.51406166 92.84386536 440.51406166 93.41784668 441.417099 C98.00918733 448.61685504 102.75190955 455.715549 107.5 462.8125 C107.91620605 463.43485535 108.33241211 464.05721069 108.76123047 464.69842529 C110.74681553 467.66669439 112.73409252 470.63382342 114.72265625 473.60009766 C118.15848843 478.72669176 121.57914275 483.86340589 125 489 C123.20151611 488.86476929 123.20151611 488.86476929 121.36669922 488.72680664 C99.97218285 486.50491785 99.97218285 486.50491785 79.91064453 491.85351562 C75.15969062 496.88356848 72.86997665 503.09210693 70.46728516 509.48974609 C68.03327966 515.31272963 64.62814039 520.50718135 61.25808716 525.82577515 C59.46963394 528.66565331 57.74221704 531.54084613 56.0078125 534.4140625 C53.93090364 537.8414232 51.8426594 541.25995896 49.71386719 544.65527344 C49.15601028 545.54875992 49.15601028 545.54875992 48.58688354 546.46029663 C47.54944011 548.11937898 46.50704064 549.77535925 45.46435547 551.43115234 C43.83492276 553.79676869 43.83492276 553.79676869 44 556 C44.62578068 555.97749994 45.25156136 555.95499989 45.89630508 555.93181801 C61.21609183 555.39157871 76.53003985 555.02239467 91.85768509 554.83678627 C99.27158482 554.74300356 106.67619975 554.59340696 114.08544922 554.30957031 C165.10484762 552.40258089 165.10484762 552.40258089 175.48331928 561.39318848 C182.41716681 568.65189221 185.90423925 577.61724771 189 587 C189.74672647 588.92168138 190.50638975 590.83843766 191.28466797 592.74755859 C192.22988862 595.11630589 193.16879909 597.48466883 194.06959534 599.87068176 C197.30490617 608.22766175 201.09880689 615.7226608 208.86364746 620.66546631 C232.07018051 630.53996218 266.50710889 624.02805537 291 622 C288.04142707 616.5317174 284.96110433 611.24058119 281.45703125 606.10546875 C280.57449253 604.79642511 279.69251977 603.48699978 278.81103516 602.17724609 C278.1222226 601.15603668 278.1222226 601.15603668 277.41949463 600.11419678 C274.96802493 596.46297525 272.55319813 592.7877154 270.13671875 589.11328125 C269.62501129 588.33588593 269.11330383 587.5584906 268.58609009 586.75753784 C267.5127751 585.12681019 266.43964932 583.49595799 265.36669922 581.86499023 C262.40552984 577.36382334 259.44286081 572.8636435 256.48046875 568.36328125 C255.86545502 567.42888214 255.25044128 566.49448303 254.61679077 565.5317688 C248.51964306 556.26878101 242.41686806 547.0095063 236.31332397 537.75073242 C226.33034033 522.60698692 216.35035315 507.46127293 206.375 492.3125 C205.82100525 491.47119537 205.2670105 490.62989075 204.69622803 489.76309204 C200.24174718 482.99837305 195.78749409 476.2335041 191.33325195 469.46862793 C187.43060919 463.54151424 183.52787364 457.61446166 179.625 451.6875 C178.79424957 450.42590561 178.79424957 450.42590561 177.94671631 449.13882446 C169.13462279 435.75692273 160.31821422 422.37786903 151.5 409 C142.12195971 394.7728343 132.74645091 380.54400707 123.375 366.3125 C122.82798431 365.48183014 122.28096863 364.65116028 121.71737671 363.7953186 C115.96402083 355.0585365 110.21131525 346.32132691 104.4598999 337.58326721 C102.00227834 333.84952972 99.54439649 330.1159636 97.08648682 326.38241577 C95.92290331 324.61478169 94.75944677 322.84706403 93.59613037 321.07925415 C90.51589479 316.39844872 87.43298556 311.71943097 84.34625244 307.04290771 C83.05861295 305.08894383 81.77569449 303.13195565 80.49365234 301.17431641 C79.76023215 300.06012853 79.02668143 298.94602654 78.29296875 297.83203125 C77.36327271 296.41434448 77.36327271 296.41434448 76.41479492 294.96801758 C75.9479126 294.31857178 75.48103027 293.66912598 75 293 C74.67 293 74.34 293 74 293 Z " fill="#FF4646" transform="translate(542,3)"/>
</svg>
