<?xml version="1.0" encoding="UTF-8"?>
<svg version="1.1" xmlns="http://www.w3.org/2000/svg" width="80" height="80">
<path d="M0 0 C1.010625 -0.00773438 2.02125 -0.01546875 3.0625 -0.0234375 C6.39567202 0.42866828 8.15555511 1.64320863 11 3.375 C13.84576386 3.78950902 16.60447799 3.8743253 19.4765625 3.96875 C22.43280837 4.44467813 23.24910261 4.98839218 25 7.375 C25.94921875 9.41796875 25.94921875 9.41796875 26.6875 11.5625 C26.93886719 12.27792969 27.19023438 12.99335938 27.44921875 13.73046875 C27.63097656 14.27316406 27.81273438 14.81585938 28 15.375 C28.66 15.045 29.32 14.715 30 14.375 C30 16.025 30 17.675 30 19.375 C30.78375 19.6225 31.5675 19.87 32.375 20.125 C35.44998921 21.58928057 35.86889257 22.24270251 37 25.375 C37.4125 26.303125 37.825 27.23125 38.25 28.1875 C39.19364516 32.19799192 38.1656997 34.46647746 37 38.375 C37.30636037 41.86750816 37.93271172 45.09463216 38.75 48.5 C39.06668792 52.14191112 38.08427796 53.44157176 36 56.375 C35.5359375 57.48875 35.5359375 57.48875 35.0625 58.625 C34 60.375 34 60.375 31.875 61.125 C31.25625 61.2075 30.6375 61.29 30 61.375 C30 63.025 30 64.675 30 66.375 C29.34 66.045 28.68 65.715 28 65.375 C27.73445313 66.08527344 27.46890625 66.79554687 27.1953125 67.52734375 C26.84210938 68.44644531 26.48890625 69.36554688 26.125 70.3125 C25.77695313 71.22902344 25.42890625 72.14554687 25.0703125 73.08984375 C24 75.375 24 75.375 22 76.375 C19.27648708 76.61182721 16.55424792 76.75690802 13.82421875 76.8984375 C10.92961285 77.20671962 10.92961285 77.20671962 8.51953125 78.890625 C5.46967784 80.68743786 3.51576292 80.77690635 0 80.75 C-1.010625 80.75773437 -2.02125 80.76546875 -3.0625 80.7734375 C-6.39567202 80.32133172 -8.15555511 79.10679137 -11 77.375 C-13.84576386 76.96049098 -16.60447799 76.8756747 -19.4765625 76.78125 C-22 76.375 -22 76.375 -23.6875 75.22265625 C-26.06765163 71.87202613 -27.15295941 67.93557308 -28.5234375 64.08984375 C-30.30443653 60.81525558 -31.53323628 60.45379844 -35 59.375 C-36.1875 57.4375 -36.1875 57.4375 -37 55.375 C-37.66 54.385 -38.32 53.395 -39 52.375 C-38.72265625 50.140625 -38.72265625 50.140625 -38.0625 47.625 C-36.76816242 41.90834237 -37.51636325 37.49556114 -38.8125 31.8125 C-39.05268714 27.40906906 -37.68370577 25.76909847 -35 22.375 C-34.67 21.715 -34.34 21.055 -34 20.375 C-33.37222656 20.28992188 -32.74445312 20.20484375 -32.09765625 20.1171875 C-29.70806168 19.5386408 -29.70806168 19.5386408 -28.62109375 16.7578125 C-28.23050781 15.68273437 -27.83992188 14.60765625 -27.4375 13.5 C-24.78157875 6.27241103 -24.78157875 6.27241103 -22 4.375 C-19.4765625 3.96875 -19.4765625 3.96875 -16.625 3.875 C-13.27214258 3.76416174 -11.41488304 3.6275944 -8.5234375 1.8671875 C-5.47058798 0.06194212 -3.52221674 -0.02695574 0 0 Z M-22 5.375 C-22 5.705 -22 6.035 -22 6.375 C-19.03 6.375 -16.06 6.375 -13 6.375 C-13 6.045 -13 5.715 -13 5.375 C-15.97 5.375 -18.94 5.375 -22 5.375 Z M13 5.375 C13 5.705 13 6.035 13 6.375 C15.97 6.375 18.94 6.375 22 6.375 C22 6.045 22 5.715 22 5.375 C19.03 5.375 16.06 5.375 13 5.375 Z M-22 74.375 C-22 74.705 -22 75.035 -22 75.375 C-19.03 75.375 -16.06 75.375 -13 75.375 C-13 75.045 -13 74.715 -13 74.375 C-15.97 74.375 -18.94 74.375 -22 74.375 Z M13 74.375 C13 74.705 13 75.035 13 75.375 C15.97 75.375 18.94 75.375 22 75.375 C22 75.045 22 74.715 22 74.375 C19.03 74.375 16.06 74.375 13 74.375 Z " fill="#1E0A51" transform="translate(40,-0.375)"/>
<path d="M0 0 C1.010625 -0.00773438 2.02125 -0.01546875 3.0625 -0.0234375 C6.39567202 0.42866828 8.15555511 1.64320863 11 3.375 C13.84576386 3.78950902 16.60447799 3.8743253 19.4765625 3.96875 C22.43280837 4.44467813 23.24910261 4.98839218 25 7.375 C25.94921875 9.41796875 25.94921875 9.41796875 26.6875 11.5625 C26.93886719 12.27792969 27.19023438 12.99335938 27.44921875 13.73046875 C27.63097656 14.27316406 27.81273438 14.81585938 28 15.375 C28.66 15.045 29.32 14.715 30 14.375 C30 16.025 30 17.675 30 19.375 C30.78375 19.6225 31.5675 19.87 32.375 20.125 C35.44998921 21.58928057 35.86889257 22.24270251 37 25.375 C37.433125 26.2825 37.86625 27.19 38.3125 28.125 C39.28729134 32.7331045 37.90728694 35.12028298 36 39.375 C34.66104368 37.71284732 33.32869858 36.04536393 32 34.375 C31.20722656 33.45847656 31.20722656 33.45847656 30.3984375 32.5234375 C28.7282865 29.95756306 28.57792238 28.28493522 28.4375 25.25 C28.37658256 21.34169166 28.37658256 21.34169166 26 18.375 C24.7625 17.983125 23.525 17.59125 22.25 17.1875 C18.7507707 15.97695581 17.14728255 14.64181845 14.9375 11.6875 C12.5699773 8.62325421 12.5699773 8.62325421 8.625 7.875 C5.44853419 8.31313321 2.27434162 8.75965217 -0.89453125 9.25 C-3.28486713 9.39191233 -5.2284448 8.94473101 -7.5625 8.4375 C-9.82359357 8.02129647 -9.82359357 8.02129647 -12 8.375 C-14.05857243 10.16235662 -15.5341841 12.10842734 -17.16015625 14.29296875 C-20.12040511 17.64288944 -23.84686825 18.94353509 -28 20.375 C-28.02126953 21.31859375 -28.02126953 21.31859375 -28.04296875 22.28125 C-28.31478183 27.1591928 -28.78860088 30.57075639 -31.625 34.625 C-33.57607513 37.42191695 -34 38.06572217 -34 41.625 C-33.0070035 44.35574038 -31.9178631 46.20698084 -30 48.375 C-30.33 49.035 -30.66 49.695 -31 50.375 C-32.32 49.055 -33.64 47.735 -35 46.375 C-35.12375 47.509375 -35.2475 48.64375 -35.375 49.8125 C-35.58125 50.988125 -35.7875 52.16375 -36 53.375 C-36.99 53.87 -36.99 53.87 -38 54.375 C-39.01266272 51.03321303 -39.01020066 49.40942721 -38 46 C-36.58832205 40.88266744 -37.65020466 36.90871802 -38.8125 31.8125 C-39.05268714 27.40906906 -37.68370577 25.76909847 -35 22.375 C-34.67 21.715 -34.34 21.055 -34 20.375 C-33.37222656 20.28992188 -32.74445312 20.20484375 -32.09765625 20.1171875 C-29.70806168 19.5386408 -29.70806168 19.5386408 -28.62109375 16.7578125 C-28.23050781 15.68273437 -27.83992188 14.60765625 -27.4375 13.5 C-24.78157875 6.27241103 -24.78157875 6.27241103 -22 4.375 C-19.4765625 3.96875 -19.4765625 3.96875 -16.625 3.875 C-13.27214258 3.76416174 -11.41488304 3.6275944 -8.5234375 1.8671875 C-5.47058798 0.06194212 -3.52221674 -0.02695574 0 0 Z M-22 5.375 C-22 5.705 -22 6.035 -22 6.375 C-19.03 6.375 -16.06 6.375 -13 6.375 C-13 6.045 -13 5.715 -13 5.375 C-15.97 5.375 -18.94 5.375 -22 5.375 Z M13 5.375 C13 5.705 13 6.035 13 6.375 C15.97 6.375 18.94 6.375 22 6.375 C22 6.045 22 5.715 22 5.375 C19.03 5.375 16.06 5.375 13 5.375 Z " fill="#4A42DD" transform="translate(40,-0.375)"/>
<path d="M0 0 C2 1 2 1 2.73828125 2.890625 C4.30275475 9.31880182 4.30275475 9.31880182 2.75 12.8125 C2.1725 13.534375 1.595 14.25625 1 15 C0.5359375 16.11375 0.5359375 16.11375 0.0625 17.25 C-1 19 -1 19 -3.125 19.75 C-3.74375 19.8325 -4.3625 19.915 -5 20 C-5 21.65 -5 23.3 -5 25 C-5.66 24.67 -6.32 24.34 -7 24 C-7.26554687 24.71027344 -7.53109375 25.42054687 -7.8046875 26.15234375 C-8.33449219 27.53099609 -8.33449219 27.53099609 -8.875 28.9375 C-9.39707031 30.31228516 -9.39707031 30.31228516 -9.9296875 31.71484375 C-11 34 -11 34 -13 35 C-15.72351292 35.23682721 -18.44575208 35.38190802 -21.17578125 35.5234375 C-24.07038715 35.83171962 -24.07038715 35.83171962 -26.48046875 37.515625 C-29.53032216 39.31243786 -31.48423708 39.40190635 -35 39.375 C-36.010625 39.38273437 -37.02125 39.39046875 -38.0625 39.3984375 C-41.39567202 38.94633172 -43.15555511 37.73179137 -46 36 C-48.84576386 35.58549098 -51.60447799 35.5006747 -54.4765625 35.40625 C-57 35 -57 35 -58.6875 33.84765625 C-61.06765163 30.49702613 -62.15295941 26.56057308 -63.5234375 22.71484375 C-65.31169107 19.42691722 -66.54432867 19.13519638 -70 18 C-72.04810314 14.17093761 -72.08838849 12.39143473 -71.125 8.125 C-70.75375 7.09375 -70.3825 6.0625 -70 5 C-67 6 -67 6 -65 8 C-64.67 8 -64.34 8 -64 8 C-64.04382813 8.73605469 -64.08765625 9.47210938 -64.1328125 10.23046875 C-64.12442004 13.40701549 -63.95522461 15.96221363 -63 19 C-60.60478644 20.84723112 -58.31402818 21.78767089 -55.5 22.87890625 C-52.88587182 24.05117936 -51.88906382 24.95854564 -50.25 27.25 C-48.2228864 30.25068577 -48.2228864 30.25068577 -44.875 30.9375 C-41.92776303 31.16301643 -41.92776303 31.16301643 -39 30 C-35.84117672 29.87364707 -32.88339327 29.79710049 -29.7890625 30.5078125 C-27.34879669 31.03251129 -25.48115578 31.33229765 -23 31 C-20.94124459 29.21189993 -19.46620503 27.26709547 -17.83984375 25.08203125 C-14.87959489 21.73211056 -11.15313175 20.43146491 -7 19 C-6.99742188 18.38253906 -6.99484375 17.76507813 -6.9921875 17.12890625 C-6.6635196 9.93107916 -4.42940528 5.60787091 0 0 Z M-57 33 C-57 33.33 -57 33.66 -57 34 C-54.03 34 -51.06 34 -48 34 C-48 33.67 -48 33.34 -48 33 C-50.97 33 -53.94 33 -57 33 Z M-22 33 C-22 33.33 -22 33.66 -22 34 C-19.03 34 -16.06 34 -13 34 C-13 33.67 -13 33.34 -13 33 C-15.97 33 -18.94 33 -22 33 Z " fill="#5433AF" transform="translate(75,41)"/>
<path d="M0 0 C3 1 6 2 9 3 C9 3.99 9 4.98 9 6 C9.33 4.35 9.66 2.7 10 1 C10.89203125 1.08378906 11.7840625 1.16757812 12.703125 1.25390625 C13.87359375 1.35574219 15.0440625 1.45757812 16.25 1.5625 C17.99023438 1.71912109 17.99023438 1.71912109 19.765625 1.87890625 C22.55946538 1.98350655 24.3691189 1.75422551 27 1 C28.2065625 1.2475 28.2065625 1.2475 29.4375 1.5 C32.2832481 2.05526792 34.21591523 1.71590751 37 1 C37.66 2.65 38.32 4.3 39 6 C37.7625 5.938125 36.525 5.87625 35.25 5.8125 C32.21788698 5.79637174 31.17751704 5.89348977 28.5 7.5 C28.005 7.995 27.51 8.49 27 9 C30.40562852 9.77842938 33.50765756 10.09978121 37 10 C37 11.65 37 13.3 37 15 C36.01 15.33 35.02 15.66 34 16 C33.34 15.34 32.68 14.68 32 14 C29.91386147 13.97816028 29.91386147 13.97816028 27.625 14.375 C24.6488658 14.80300592 22.03991846 15 19 15 C18.67 15.99 18.34 16.98 18 18 C15.69 17.67 13.38 17.34 11 17 C11 16.01 11 15.02 11 14 C10.4225 14.165 9.845 14.33 9.25 14.5 C4.73105151 15.50421077 0.50975164 14.64425023 -4 14 C-5.32 14 -6.64 14 -8 14 C-8.33 14 -8.66 14 -9 14 C-9 12.35 -9 10.7 -9 9 C-8.34 9 -7.68 9 -7 9 C-7 9.66 -7 10.32 -7 11 C-6.34 11 -5.68 11 -5 11 C-5 9.68 -5 8.36 -5 7 C-5.66 7 -6.32 7 -7 7 C-7 6.34 -7 5.68 -7 5 C-8.32 5.33 -9.64 5.66 -11 6 C-10.34 4.35 -9.68 2.7 -9 1 C-6.33333333 1 -3.66666667 1 -1 1 C-0.67 0.67 -0.34 0.34 0 0 Z M3.3125 8.5 C2.879375 8.995 2.44625 9.49 2 10 C3.84725052 10.69159401 3.84725052 10.69159401 6 11 C6.99 10.34 7.98 9.68 9 9 C8.67 8.34 8.34 7.68 8 7 C4.99740483 6.66781808 4.99740483 6.66781808 3.3125 8.5 Z " fill="#372465" transform="translate(26,31)"/>
<path d="M0 0 C0.89203125 0.08378906 1.7840625 0.16757812 2.703125 0.25390625 C3.87359375 0.35574219 5.0440625 0.45757812 6.25 0.5625 C7.99023438 0.71912109 7.99023438 0.71912109 9.765625 0.87890625 C12.55946538 0.98350655 14.3691189 0.75422551 17 0 C18.2065625 0.2475 18.2065625 0.2475 19.4375 0.5 C22.2832481 1.05526792 24.21591523 0.71590751 27 0 C27.66 1.65 28.32 3.3 29 5 C27.7625 4.938125 26.525 4.87625 25.25 4.8125 C22.21788698 4.79637174 21.17751704 4.89348977 18.5 6.5 C18.005 6.995 17.51 7.49 17 8 C20.40562852 8.77842938 23.50765756 9.09978121 27 9 C27 10.65 27 12.3 27 14 C26.01 14.33 25.02 14.66 24 15 C23.34 14.34 22.68 13.68 22 13 C20.0068433 12.97624074 20.0068433 12.97624074 17.875 13.375 C16.59625 13.58125 15.3175 13.7875 14 14 C14.33 12.68 14.66 11.36 15 10 C9.72 10 4.44 10 -1 10 C-1 9.34 -1 8.68 -1 8 C-1.66 7.67 -2.32 7.34 -3 7 C-2.34 6.34 -1.68 5.68 -1 5 C-0.35232207 2.42938689 -0.35232207 2.42938689 0 0 Z " fill="#221253" transform="translate(36,32)"/>
<path d="M0 0 C2 1 2 1 2.73828125 2.890625 C4.30275475 9.31880182 4.30275475 9.31880182 2.75 12.8125 C2.1725 13.534375 1.595 14.25625 1 15 C0.690625 15.7425 0.38125 16.485 0.0625 17.25 C-1 19 -1 19 -3.125 19.75 C-4.053125 19.87375 -4.053125 19.87375 -5 20 C-5 21.65 -5 23.3 -5 25 C-5.66 24.67 -6.32 24.34 -7 24 C-8.32 27.3 -9.64 30.6 -11 34 C-14.96 34 -18.92 34 -23 34 C-21.76299242 29.0519697 -19.79019991 26.36126782 -16 23 C-13.09284206 21.37596877 -10.13278119 20.12083949 -7 19 C-6.99742188 18.38253906 -6.99484375 17.76507813 -6.9921875 17.12890625 C-6.6635196 9.93107916 -4.42940528 5.60787091 0 0 Z " fill="#48227A" transform="translate(75,41)"/>
<path d="M0 0 C0.66 0.33 1.32 0.66 2 1 C1.32304218 4.0815684 0.29279751 6.81197613 -1 9.6875 C-1.350625 10.47511719 -1.70125 11.26273438 -2.0625 12.07421875 C-3 14 -3 14 -4 15 C-4.10662303 16.51937816 -4.18494916 18.04077504 -4.25 19.5625 C-4.58049952 23.5569856 -5.32764702 25.96897379 -7.625 29.25 C-9.57607513 32.04691695 -10 32.69072217 -10 36.25 C-9.0070035 38.98074038 -7.9178631 40.83198084 -6 43 C-6.33 43.66 -6.66 44.32 -7 45 C-8.32 43.68 -9.64 42.36 -11 41 C-11.12375 42.134375 -11.2475 43.26875 -11.375 44.4375 C-11.58125 45.613125 -11.7875 46.78875 -12 48 C-12.99 48.495 -12.99 48.495 -14 49 C-15.01266272 45.65821303 -15.01020066 44.03442721 -14 40.625 C-12.58832205 35.50766744 -13.65020466 31.53371802 -14.8125 26.4375 C-15.05268714 22.03406906 -13.68370577 20.39409847 -11 17 C-10.67 16.34 -10.34 15.68 -10 15 C-9.37480469 14.91621094 -8.74960938 14.83242188 -8.10546875 14.74609375 C-5.70369823 14.15845105 -5.70369823 14.15845105 -4.55078125 11.34765625 C-3.93783203 9.72150391 -3.93783203 9.72150391 -3.3125 8.0625 C-2.89613281 6.98097656 -2.47976563 5.89945313 -2.05078125 4.78515625 C-1.70402344 3.86605469 -1.35726563 2.94695313 -1 2 C-0.67 1.34 -0.34 0.68 0 0 Z " fill="#6E48E8" transform="translate(16,5)"/>
<path d="M0 0 C9.57 0 19.14 0 29 0 C28.01 0.495 28.01 0.495 27 1 C27 2.65 27 4.3 27 6 C20.73 6 14.46 6 8 6 C8 4.68 8 3.36 8 2 C5.36 1.67 2.72 1.34 0 1 C0 0.67 0 0.34 0 0 Z " fill="#231259" transform="translate(23,50)"/>
<path d="M0 0 C2 1 2 1 2.73828125 2.890625 C4.30275475 9.31880182 4.30275475 9.31880182 2.75 12.8125 C2.1725 13.534375 1.595 14.25625 1 15 C0.71125 15.7425 0.4225 16.485 0.125 17.25 C-1 19 -1 19 -3.5703125 19.609375 C-4.37210937 19.73828125 -5.17390625 19.8671875 -6 20 C-6.77391075 12.33255088 -6.00076654 7.77879096 -1.3125 1.58203125 C-0.879375 1.05996094 -0.44625 0.53789063 0 0 Z " fill="#6435AD" transform="translate(75,41)"/>
<path d="M0 0 C7.92 0 15.84 0 24 0 C24 0.99 24 1.98 24 3 C22.35 3.33 20.7 3.66 19 4 C19.66 4.66 20.32 5.32 21 6 C13.08 6.33 5.16 6.66 -3 7 C-3 6.34 -3 5.68 -3 5 C0.465 4.505 0.465 4.505 4 4 C2.68 3.67 1.36 3.34 0 3 C0 2.01 0 1.02 0 0 Z " fill="#2C1666" transform="translate(26,58)"/>
<path d="M0 0 C1.67762961 0.27285119 3.34547603 0.61084793 5 1 C6.1875 2.6875 6.1875 2.6875 7 5 C7.433125 5.9075 7.86625 6.815 8.3125 7.75 C9.28729134 12.3581045 7.90728694 14.74528298 6 19 C-0.2652439 11.27286585 -0.2652439 11.27286585 -0.125 5.3125 C-0.10695313 4.31863281 -0.08890625 3.32476563 -0.0703125 2.30078125 C-0.04710938 1.54152344 -0.02390625 0.78226563 0 0 Z " fill="#7248E6" transform="translate(70,20)"/>
<path d="M0 0 C-0.33 1.65 -0.66 3.3 -1 5 C-4.20816776 5.82791426 -7.32522388 6.14234009 -10.625 6.25 C-11.38039063 6.27578125 -12.13578125 6.3015625 -12.9140625 6.328125 C-15.56035767 5.91185385 -16.42965926 5.14046445 -18 3 C-18 2.01 -18 1.02 -18 0 C-11.3523435 -2.2158855 -6.73146436 -1.79321797 0 0 Z " fill="#431F77" transform="translate(49,74)"/>
<path d="M0 0 C3 1 3 1 5 3 C5.33 3 5.66 3 6 3 C5.95617187 3.73605469 5.91234375 4.47210938 5.8671875 5.23046875 C5.87561338 8.41966608 6.0285035 10.95283917 7 14 C10.06303005 16.4629475 13.28427 17.7794063 17 19 C15 20 15 20 11.875 19.0625 C10.92625 18.711875 9.9775 18.36125 9 18 C8.67 19.32 8.34 20.64 8 22 C7.608125 20.88625 7.21625 19.7725 6.8125 18.625 C5.52457877 15.46237321 5.52457877 15.46237321 2.4375 13.9375 C1.633125 13.628125 0.82875 13.31875 0 13 C-2.04810314 9.17093761 -2.08838849 7.39143473 -1.125 3.125 C-0.75375 2.09375 -0.3825 1.0625 0 0 Z " fill="#683AB8" transform="translate(5,46)"/>
<path d="M0 0 C1.22976562 0.12568359 1.22976562 0.12568359 2.484375 0.25390625 C3.56203125 0.35574219 4.6396875 0.45757812 5.75 0.5625 C6.81734375 0.66691406 7.8846875 0.77132812 8.984375 0.87890625 C11.67419028 0.98691697 13.45457806 0.71678179 16 0 C17.2065625 0.2475 17.2065625 0.2475 18.4375 0.5 C21.2832481 1.05526792 23.21591523 0.71590751 26 0 C26.66 1.65 27.32 3.3 28 5 C21.07 5 14.14 5 7 5 C6.67 4.34 6.34 3.68 6 3 C5.34 3.66 4.68 4.32 4 5 C2.68 5 1.36 5 0 5 C0 3.35 0 1.7 0 0 Z " fill="#ABA6BD" transform="translate(37,32)"/>
<path d="M0 0 C3.96 0 7.92 0 12 0 C12 0.66 12 1.32 12 2 C13.32 2 14.64 2 16 2 C16 2.66 16 3.32 16 4 C12.57767028 5.14077657 9.91326783 5.09815117 6.3125 5.0625 C4.54326172 5.04896484 4.54326172 5.04896484 2.73828125 5.03515625 C1.83464844 5.02355469 0.93101563 5.01195312 0 5 C0 3.35 0 1.7 0 0 Z " fill="#685E89" transform="translate(43,20)"/>
<path d="M0 0 C0.99 0.33 1.98 0.66 3 1 C5.22574335 1.22451458 7.45581519 1.40782878 9.6875 1.5625 C10.86699219 1.64628906 12.04648437 1.73007812 13.26171875 1.81640625 C14.61716797 1.90728516 14.61716797 1.90728516 16 2 C16 2.99 16 3.98 16 5 C10.06 5 4.12 5 -2 5 C-2 3.68 -2 2.36 -2 1 C-1.34 0.67 -0.68 0.34 0 0 Z " fill="#948BAB" transform="translate(33,51)"/>
<path d="M0 0 C1.22589844 0.15275391 1.22589844 0.15275391 2.4765625 0.30859375 C3.41628906 0.43427734 3.41628906 0.43427734 4.375 0.5625 C4.045 1.5525 3.715 2.5425 3.375 3.5625 C1.725 3.8925 0.075 4.2225 -1.625 4.5625 C-1.955 5.5525 -2.285 6.5425 -2.625 7.5625 C-4.935 7.2325 -7.245 6.9025 -9.625 6.5625 C-8.635 6.2325 -7.645 5.9025 -6.625 5.5625 C-6.625 3.9125 -6.625 2.2625 -6.625 0.5625 C-4.10446405 -0.69776798 -2.7707902 -0.35624445 0 0 Z " fill="#2C1E5A" transform="translate(46.625,41.4375)"/>
<path d="M0 0 C4.02545534 0.28084572 5.74482626 0.78365704 8.875 3.4375 C11 6 11 6 11 8 C4.67741935 8.48635236 4.67741935 8.48635236 1.5625 6.25 C0 4 0 4 0 0 Z " fill="#432277" transform="translate(14,64)"/>
<path d="M0 0 C0.66 0 1.32 0 2 0 C2 0.66 2 1.32 2 2 C7.94 1.67 13.88 1.34 20 1 C20 1.99 20 2.98 20 4 C6.3667426 5.33257403 6.3667426 5.33257403 0 4 C0 2.68 0 1.36 0 0 Z " fill="#524172" transform="translate(30,13)"/>
<path d="M0 0 C0.66 0.33 1.32 0.66 2 1 C1.32304218 4.0815684 0.29279751 6.81197613 -1 9.6875 C-1.350625 10.47511719 -1.70125 11.26273438 -2.0625 12.07421875 C-3 14 -3 14 -4 15 C-4.23287008 16.68183948 -4.41264166 18.3712416 -4.5625 20.0625 C-4.68818359 21.44115234 -4.68818359 21.44115234 -4.81640625 22.84765625 C-4.87699219 23.55792969 -4.93757812 24.26820312 -5 25 C-7.15973378 21.76039934 -7.75921963 19.85248595 -8 16 C-7.55269531 15.55785156 -7.10539063 15.11570312 -6.64453125 14.66015625 C-4.47754748 12.47258357 -3.85693751 10.34078768 -2.875 7.4375 C-1.03797468 2.07594937 -1.03797468 2.07594937 0 0 Z " fill="#604CEC" transform="translate(16,5)"/>
<path d="M0 0 C0.33 0 0.66 0 1 0 C0.95617187 0.73605469 0.91234375 1.47210938 0.8671875 2.23046875 C0.87561338 5.41966608 1.0285035 7.95283917 2 11 C5.06303005 13.4629475 8.28427 14.7794063 12 16 C10 17 10 17 6.875 16.0625 C5.451875 15.5365625 5.451875 15.5365625 4 15 C3.67 16.32 3.34 17.64 3 19 C2.566875 17.906875 2.13375 16.81375 1.6875 15.6875 C0.50504359 12.90591207 -0.60800043 10.93638061 -3 9 C-2 6 -1 3 0 0 Z " fill="#5634B2" transform="translate(10,49)"/>
<path d="M0 0 C5.94 0 11.88 0 18 0 C18 0.99 18 1.98 18 3 C12.06 3 6.12 3 0 3 C0 2.01 0 1.02 0 0 Z " fill="#9991AF" transform="translate(26,58)"/>
<path d="M0 0 C0 1.98 0 3.96 0 6 C-0.99 6 -1.98 6 -3 6 C-3 5.34 -3 4.68 -3 4 C-3.556875 4.185625 -4.11375 4.37125 -4.6875 4.5625 C-7.399133 5.07551165 -9.34371039 4.6640724 -12 4 C-12 3.01 -12 2.02 -12 1 C-8.0186217 -0.3271261 -4.14954773 -0.06915913 0 0 Z " fill="#A59EB8" transform="translate(40,41)"/>
<path d="M0 0 C4.95 0.33 9.9 0.66 15 1 C14.67 1.66 14.34 2.32 14 3 C14.33 3.33 14.66 3.66 15 4 C12.10765685 4.82638376 10.11257569 5 7 5 C6.67 4.34 6.34 3.68 6 3 C5.34 3.66 4.68 4.32 4 5 C2.68 5 1.36 5 0 5 C0 3.35 0 1.7 0 0 Z " fill="#B7B2C6" transform="translate(37,32)"/>
<path d="M0 0 C1.37478516 0.01740234 1.37478516 0.01740234 2.77734375 0.03515625 C3.69644531 0.04417969 4.61554687 0.05320313 5.5625 0.0625 C6.27277344 0.07410156 6.98304687 0.08570313 7.71484375 0.09765625 C7.71484375 1.74765625 7.71484375 3.39765625 7.71484375 5.09765625 C6.72484375 5.42765625 5.73484375 5.75765625 4.71484375 6.09765625 C4.05484375 5.43765625 3.39484375 4.77765625 2.71484375 4.09765625 C0.11203807 4.41807022 0.11203807 4.41807022 -2.28515625 5.09765625 C-2.84765625 3.16015625 -2.84765625 3.16015625 -3.28515625 1.09765625 C-2.28515625 0.09765625 -2.28515625 0.09765625 0 0 Z " fill="#9C95B2" transform="translate(55.28515625,40.90234375)"/>
<path d="M0 0 C1.9375 1.1875 1.9375 1.1875 4 3 C4.33 4.65 4.66 6.3 5 8 C1.37 8.33 -2.26 8.66 -6 9 C-6.66 7.68 -7.32 6.36 -8 5 C-7.67 4.01 -7.34 3.02 -7 2 C-6.4740625 2.7115625 -6.4740625 2.7115625 -5.9375 3.4375 C-3.15836457 5.67873825 -0.4855283 5.67117658 3 6 C2.2575 5.071875 2.2575 5.071875 1.5 4.125 C0 2 0 2 0 0 Z " fill="#51259B" transform="translate(22,66)"/>
<path d="M0 0 C5.78461538 3.44615385 5.78461538 3.44615385 6.875 6.25 C6.936875 7.11625 6.936875 7.11625 7 8 C5.35 6.68 3.7 5.36 2 4 C1.87625 5.134375 1.7525 6.26875 1.625 7.4375 C1.41875 8.613125 1.2125 9.78875 1 11 C0.01 11.495 0.01 11.495 -1 12 C-2.36884358 7.48281619 -1.47075246 4.41225737 0 0 Z " fill="#7642D1" transform="translate(3,42)"/>
<path d="M0 0 C1.39456452 0.00667256 2.78911118 0.01863093 4.18359375 0.03515625 C4.89451172 0.03966797 5.60542969 0.04417969 6.33789062 0.04882812 C8.09899388 0.06064761 9.86005411 0.07858362 11.62109375 0.09765625 C11.62109375 1.08765625 11.62109375 2.07765625 11.62109375 3.09765625 C10.07421875 3.06671875 10.07421875 3.06671875 8.49609375 3.03515625 C4.69944535 2.97290684 4.69944535 2.97290684 1.37109375 3.78515625 C-1.37890625 4.09765625 -1.37890625 4.09765625 -3.25390625 2.66015625 C-3.81078125 1.88671875 -3.81078125 1.88671875 -4.37890625 1.09765625 C-3.37890625 0.09765625 -3.37890625 0.09765625 0 0 Z " fill="#815E8E" transform="translate(27.37890625,20.90234375)"/>
<path d="M0 0 C3 1 6 2 9 3 C8.67 3.99 8.34 4.98 8 6 C5 6 2 6 -1 6 C-1.042721 4.33388095 -1.04063832 2.66617115 -1 1 C-0.67 0.67 -0.34 0.34 0 0 Z " fill="#B7B0C7" transform="translate(26,31)"/>
<path d="M0 0 C0.66 0 1.32 0 2 0 C2.144375 1.0725 2.28875 2.145 2.4375 3.25 C2.88656629 6.74263964 2.88656629 6.74263964 3.5625 9.0625 C4.16319351 11.7227141 4.06173087 14.28384152 4 17 C2 16 2 16 1.11328125 13.41796875 C0.84902344 12.35191406 0.58476563 11.28585938 0.3125 10.1875 C0.04050781 9.12917969 -0.23148437 8.07085937 -0.51171875 6.98046875 C-0.97258895 4.16731706 -0.9525694 2.64034337 0 0 Z " fill="#7A4AEC" transform="translate(2,27)"/>
<path d="M0 0 C1.875 0.125 1.875 0.125 4 1 C5.63376486 3.91236344 6.28203873 5.88584701 5.44921875 9.17578125 C4.71010822 11.14791031 3.86150489 13.0781814 3 15 C2.34 13.68 1.68 12.36 1 11 C1.33 10.67 1.66 10.34 2 10 C2.22918242 5.98342857 2.22918242 5.98342857 2 2 C1.34 1.34 0.68 0.68 0 0 Z " fill="#8149EF" transform="translate(73,24)"/>
<path d="M0 0 C0.33 0.66 0.66 1.32 1 2 C2.093125 1.835 3.18625 1.67 4.3125 1.5 C8 1 8 1 11 1 C10.67 2.32 10.34 3.64 10 5 C6.04 5 2.08 5 -2 5 C-1 1 -1 1 0 0 Z " fill="#46238F" transform="translate(54,70)"/>
<path d="M0 0 C0.66 0 1.32 0 2 0 C2 0.66 2 1.32 2 2 C2.66 2 3.32 2 4 2 C4 1.34 4 0.68 4 0 C5.98 0.66 7.96 1.32 10 2 C9.67 2.99 9.34 3.98 9 5 C7.88625 4.814375 6.7725 4.62875 5.625 4.4375 C2.17431139 3.68319343 2.17431139 3.68319343 0 5 C0 3.35 0 1.7 0 0 Z " fill="#BDB7CC" transform="translate(17,40)"/>
<path d="M0 0 C1.98 0 3.96 0 6 0 C6 0.99 6 1.98 6 3 C4.33333333 3.33333333 2.66666667 3.66666667 1 4 C0.21625 4.185625 -0.5675 4.37125 -1.375 4.5625 C-4.60938087 5.10156348 -7.72724718 5.06417162 -11 5 C-11 4.67 -11 4.34 -11 4 C-9.35 4 -7.7 4 -6 4 C-6 3.34 -6 2.68 -6 2 C-3.03 2.495 -3.03 2.495 0 3 C0 2.01 0 1.02 0 0 Z " fill="#5D4F80" transform="translate(44,58)"/>
<path d="M0 0 C1.52519276 0.08937803 3.04681929 0.24537146 4.5625 0.4375 C5.80193359 0.59025391 5.80193359 0.59025391 7.06640625 0.74609375 C7.70449219 0.82988281 8.34257813 0.91367187 9 1 C8.67 1.99 8.34 2.98 8 4 C5.36 4.33 2.72 4.66 0 5 C-0.5625 3.0625 -0.5625 3.0625 -1 1 C-0.67 0.67 -0.34 0.34 0 0 Z " fill="#B2ADC3" transform="translate(42,41)"/>
<path d="M0 0 C0.99 0 1.98 0 3 0 C4.06723961 3.46222615 4.10173486 6.64039266 4.0625 10.25 C4.05347656 11.32765625 4.04445313 12.4053125 4.03515625 13.515625 C4.02355469 14.33546875 4.01195313 15.1553125 4 16 C3.67 16 3.34 16 3 16 C2.95101562 15.30132812 2.90203125 14.60265625 2.8515625 13.8828125 C2.77679688 12.97273438 2.70203125 12.06265625 2.625 11.125 C2.52058594 9.76761719 2.52058594 9.76761719 2.4140625 8.3828125 C2.20431868 5.82058097 2.20431868 5.82058097 0 4 C-1.31747324 3.30251417 -2.64914193 2.63040043 -4 2 C-2.68 2 -1.36 2 0 2 C0 1.34 0 0.68 0 0 Z " fill="#4A36A5" transform="translate(66,14)"/>
<path d="M0 0 C2.875 -0.125 2.875 -0.125 6 0 C6.66 0.66 7.32 1.32 8 2 C7.505 2.391875 7.01 2.78375 6.5 3.1875 C4.54406857 5.55091715 4.75792027 7.01435003 5 10 C4.01 9.67 3.02 9.34 2 9 C2.33 8.01 2.66 7.02 3 6 C1.02 6 -0.96 6 -3 6 C-3 5.67 -3 5.34 -3 5 C-1.02 5 0.96 5 3 5 C3 4.34 3 3.68 3 3 C2.01 2.67 1.02 2.34 0 2 C0 1.34 0 0.68 0 0 Z " fill="#3D2F67" transform="translate(48,36)"/>
<path d="M0 0 C2 0 4 0 6 0 C6 1.65 6 3.3 6 5 C3.36 5 0.72 5 -2 5 C-1.34 3.35 -0.68 1.7 0 0 Z " fill="#B9B1CA" transform="translate(17,32)"/>
<path d="M0 0 C0.66 0.66 1.32 1.32 2 2 C1.625 4.125 1.625 4.125 1 6 C0.67 5.67 0.34 5.34 0 5 C-0.66 6.65 -1.32 8.3 -2 10 C-2.33 10 -2.66 10 -3 10 C-3 8.02 -3 6.04 -3 4 C-3.66 3.67 -4.32 3.34 -5 3 C-3.35 2.01 -1.7 1.02 0 0 Z " fill="#4C258C" transform="translate(68,60)"/>
<path d="M0 0 C2 1 2 1 2.703125 2.9609375 C2.88359375 3.75757813 3.0640625 4.55421875 3.25 5.375 C3.44078125 6.16648437 3.6315625 6.95796875 3.828125 7.7734375 C4 10 4 10 2 13 C-0.28571429 4.57142857 -0.28571429 4.57142857 0 0 Z " fill="#8447DC" transform="translate(75,41)"/>
<path d="M0 0 C2 3 2 3 1.625 5.1875 C1.41875 5.785625 1.2125 6.38375 1 7 C-0.32 7 -1.64 7 -3 7 C-2.38722388 4.03824877 -1.74627478 2.61941217 0 0 Z " fill="#713CC3" transform="translate(74,43)"/>
<path d="M0 0 C0.33 1.32 0.66 2.64 1 4 C0.01 4.495 0.01 4.495 -1 5 C-0.67 3.35 -0.34 1.7 0 0 Z M-4 5 C-1 6 -1 6 0 8 C-1.8125 8.625 -1.8125 8.625 -4 9 C-4.99 8.34 -5.98 7.68 -7 7 C-6.01 6.34 -5.02 5.68 -4 5 Z " fill="#150449" transform="translate(35,33)"/>
<path d="M0 0 C0.99 0.33 1.98 0.66 3 1 C2.67 2.32 2.34 3.64 2 5 C0.68 5 -0.64 5 -2 5 C-2 3.68 -2 2.36 -2 1 C-1.34 0.67 -0.68 0.34 0 0 Z " fill="#635884" transform="translate(33,51)"/>
<path d="M0 0 C0.33 0 0.66 0 1 0 C1 3.63 1 7.26 1 11 C-1.14418558 7.78372163 -1.67582137 5.80909895 -2 2 C-1.34 1.34 -0.68 0.68 0 0 Z " fill="#5B44DC" transform="translate(10,19)"/>
<path d="M0 0 C-0.33 0.99 -0.66 1.98 -1 3 C-2.98 3 -4.96 3 -7 3 C-7 2.01 -7 1.02 -7 0 C-4.3333581 -1.33332095 -2.83319697 -0.67102033 0 0 Z " fill="#110244" transform="translate(52,38)"/>
<path d="M0 0 C0.99 0.33 1.98 0.66 3 1 C3.73046875 2.84765625 3.73046875 2.84765625 4.1875 5.0625 C4.34605469 5.79597656 4.50460938 6.52945312 4.66796875 7.28515625 C4.83232422 8.13400391 4.83232422 8.13400391 5 9 C4.34 9 3.68 9 3 9 C0 3.375 0 3.375 0 0 Z " fill="#5139E1" transform="translate(62,5)"/>
<path d="M0 0 C0.66 0.33 1.32 0.66 2 1 C2.625 3.0625 2.625 3.0625 3 5 C0.03 4.505 0.03 4.505 -3 4 C-3 3.34 -3 2.68 -3 2 C-2.01 1.34 -1.02 0.68 0 0 Z " fill="#83799E" transform="translate(62,32)"/>
<path d="M0 0 C1.32 0.66 2.64 1.32 4 2 C3.67 2.33 3.34 2.66 3 3 C3.33 3.66 3.66 4.32 4 5 C2.35 5.33 0.7 5.66 -1 6 C-1.042721 4.33388095 -1.04063832 2.66617115 -1 1 C-0.67 0.67 -0.34 0.34 0 0 Z " fill="#877BA3" transform="translate(26,31)"/>
<path d="M0 0 C1 4 1 4 1 4 Z " fill="#6A35DF" transform="translate(0,45)"/>
<path d="M0 0 C1 4 1 4 1 4 Z " fill="#1F007F" transform="translate(77,38)"/>
<path d="M0 0 C1 4 1 4 1 4 Z " fill="#5555D4" transform="translate(2,38)"/>
<path d="M0 0 C1 4 1 4 1 4 Z " fill="#6A54FF" transform="translate(0,31)"/>
<path d="" fill="#3F1554" transform="translate(0,0)"/>
<path d="" fill="#461C63" transform="translate(0,0)"/>
<path d="" fill="#461CB8" transform="translate(0,0)"/>
<path d="" fill="#7F38B8" transform="translate(0,0)"/>
<path d="" fill="#6346AA" transform="translate(0,0)"/>
<path d="" fill="#6346FF" transform="translate(0,0)"/>
<path d="" fill="#6346AA" transform="translate(0,0)"/>
<path d="" fill="#6346FF" transform="translate(0,0)"/>
<path d="" fill="#7F38E2" transform="translate(0,0)"/>
<path d="" fill="#9B46FF" transform="translate(0,0)"/>
<path d="" fill="#4646AA" transform="translate(0,0)"/>
<path d="" fill="#3F3FE9" transform="translate(0,0)"/>
<path d="" fill="#2A2A55" transform="translate(0,0)"/>
<path d="" fill="#2A2A55" transform="translate(0,0)"/>
<path d="" fill="#6A2A94" transform="translate(0,0)"/>
<path d="" fill="#6A2ABF" transform="translate(0,0)"/>
<path d="" fill="#6A6AFF" transform="translate(0,0)"/>
<path d="" fill="#6A6AFF" transform="translate(0,0)"/>
<path d="" fill="#2A2A7F" transform="translate(0,0)"/>
<path d="" fill="#2A2A7F" transform="translate(0,0)"/>
<path d="" fill="#0000FF" transform="translate(0,0)"/>
<path d="" fill="#0000FF" transform="translate(0,0)"/>
<path d="" fill="#0000FF" transform="translate(0,0)"/>
<path d="" fill="#0000FF" transform="translate(0,0)"/>
<path d="" fill="#663399" transform="translate(0,0)"/>
<path d="" fill="#6633CC" transform="translate(0,0)"/>
<path d="" fill="#7F3FBF" transform="translate(0,0)"/>
<path d="" fill="#7F3FBF" transform="translate(0,0)"/>
<path d="" fill="#5555AA" transform="translate(0,0)"/>
<path d="" fill="#5555AA" transform="translate(0,0)"/>
<path d="" fill="#5555AA" transform="translate(0,0)"/>
<path d="" fill="#5555AA" transform="translate(0,0)"/>
<path d="" fill="#7F7FFF" transform="translate(0,0)"/>
<path d="" fill="#7F00FF" transform="translate(0,0)"/>
<path d="" fill="#7F7FFF" transform="translate(0,0)"/>
<path d="" fill="#5555AA" transform="translate(0,0)"/>
<path d="" fill="#7F7FFF" transform="translate(0,0)"/>
<path d="" fill="#7F7FFF" transform="translate(0,0)"/>
<path d="" fill="#5555AA" transform="translate(0,0)"/>
<path d="" fill="#7F7FFF" transform="translate(0,0)"/>
<path d="" fill="#5555FF" transform="translate(0,0)"/>
<path d="" fill="#5555FF" transform="translate(0,0)"/>
<path d="" fill="#5555FF" transform="translate(0,0)"/>
<path d="" fill="#5555FF" transform="translate(0,0)"/>
<path d="" fill="#7F3FBF" transform="translate(0,0)"/>
<path d="" fill="#7F3FFF" transform="translate(0,0)"/>
<path d="" fill="#7F3FBF" transform="translate(0,0)"/>
<path d="" fill="#7F3FFF" transform="translate(0,0)"/>
<path d="" fill="#0000FF" transform="translate(0,0)"/>
<path d="" fill="#0000FF" transform="translate(0,0)"/>
<path d="" fill="#FF00FF" transform="translate(0,0)"/>
<path d="" fill="#0000FF" transform="translate(0,0)"/>
</svg>
